<svg width="17" height="16" viewBox="0 0 17 16" fill="none" xmlns="http://www.w3.org/2000/svg">
<path d="M2.49991 8.39995L13.5343 8.39995L10.6171 11.3171C10.4674 11.4722 10.4674 11.7179 10.6171 11.8729C10.7706 12.0318 11.0238 12.0362 11.1827 11.8827L14.7827 8.28271C14.7828 8.28271 14.7828 8.28266 14.7828 8.28261C14.939 8.12646 14.9389 7.87324 14.7827 7.71713L11.1827 4.11713C11.1078 4.04199 11.006 3.9998 10.8999 3.99995C10.7939 3.99995 10.6921 4.04208 10.6172 4.11708C10.4609 4.27329 10.4609 4.52656 10.6171 4.68276L13.5343 7.59995L2.49991 7.59995C2.27901 7.59995 2.09991 7.77905 2.09991 7.99995C2.09991 8.22084 2.27901 8.39995 2.49991 8.39995Z" fill="#A5B2BB"/>
</svg>
