<svg width="33" height="33" viewBox="0 0 33 33" fill="none" xmlns="http://www.w3.org/2000/svg">
<path fill-rule="evenodd" clip-rule="evenodd" d="M16.5 1C12.2905 1 11.7625 1.01784 10.1094 1.09328C8.45951 1.16852 7.33283 1.43057 6.34685 1.81376C5.32765 2.20981 4.46319 2.73981 3.6015 3.6015C2.73975 4.46325 2.20981 5.32765 1.8137 6.34685C1.43051 7.33283 1.16852 8.45951 1.09321 10.1094C1.01778 11.7626 1 12.2904 1 16.5C1 20.7095 1.01778 21.2374 1.09321 22.8906C1.16852 24.5404 1.43051 25.6672 1.8137 26.6531C2.20981 27.6723 2.73975 28.5368 3.6015 29.3984C4.46319 30.2602 5.32765 30.7901 6.34685 31.1863C7.33283 31.5694 8.45951 31.8315 10.1094 31.9068C11.7625 31.9822 12.2905 32 16.5 32C20.7095 32 21.2373 31.9822 22.8906 31.9068C24.5404 31.8315 25.6671 31.5694 26.6531 31.1863C27.6723 30.7901 28.5368 30.2602 29.3984 29.3984C30.2602 28.5368 30.7901 27.6723 31.1862 26.6531C31.5694 25.6672 31.8315 24.5404 31.9067 22.8906C31.9822 21.2374 32 20.7095 32 16.5C32 12.2905 31.9822 11.7626 31.9067 10.1094C31.8315 8.45951 31.5694 7.33283 31.1862 6.34685C30.7901 5.32765 30.2602 4.46325 29.3984 3.6015C28.5368 2.73981 27.6723 2.20981 26.6531 1.81376C25.6671 1.43057 24.5404 1.16852 22.8906 1.09328C21.2373 1.01784 20.7095 1 16.5 1ZM16.5 3.79279C20.6387 3.79279 21.1289 3.80854 22.7633 3.88311C24.2745 3.95208 25.0952 4.20459 25.6414 4.41686C26.3649 4.69804 26.8813 5.03392 27.4237 5.57628C27.966 6.11871 28.3019 6.63504 28.5831 7.35854C28.7953 7.90472 29.0479 8.72544 29.1168 10.2367C29.1913 11.8711 29.2072 12.3613 29.2072 16.5C29.2072 20.6387 29.1913 21.1289 29.1168 22.7633C29.0479 24.2746 28.7953 25.0953 28.5831 25.6415C28.3019 26.3649 27.966 26.8813 27.4237 27.4237C26.8813 27.9661 26.3649 28.302 25.6414 28.5831C25.0952 28.7953 24.2745 29.0479 22.7633 29.1168C21.1291 29.1914 20.639 29.2072 16.5 29.2072C12.361 29.2072 11.8708 29.1914 10.2367 29.1168C8.72544 29.0479 7.90466 28.7953 7.35848 28.5831C6.63504 28.302 6.11864 27.9661 5.57628 27.4237C5.03392 26.8813 4.69798 26.3649 4.4168 25.6415C4.20459 25.0953 3.95208 24.2746 3.88311 22.7633C3.80854 21.1289 3.79279 20.6387 3.79279 16.5C3.79279 12.3613 3.80854 11.8711 3.88311 10.2367C3.95208 8.72544 4.20459 7.90472 4.4168 7.35854C4.69798 6.63504 5.03392 6.11871 5.57628 5.57634C6.11864 5.03392 6.63504 4.69804 7.35848 4.41686C7.90466 4.20459 8.72544 3.95208 10.2366 3.88311C11.8711 3.80854 12.3613 3.79279 16.5 3.79279Z" fill="white"/>
<path d="M10.1094 1.09328L10.1322 1.59276L10.1322 1.59276L10.1094 1.09328ZM6.34685 1.81376L6.52795 2.27981L6.52797 2.2798L6.34685 1.81376ZM1.8137 6.34685L1.34766 6.16572L1.34766 6.16573L1.8137 6.34685ZM1.09321 10.1094L0.593734 10.0866L0.593734 10.0866L1.09321 10.1094ZM1.09321 22.8906L0.593734 22.9134L0.593734 22.9134L1.09321 22.8906ZM1.8137 26.6531L2.27974 26.472L2.27974 26.472L1.8137 26.6531ZM3.6015 29.3984L3.95507 29.0449L3.95504 29.0449L3.6015 29.3984ZM6.34685 31.1863L6.1657 31.6523L6.16575 31.6524L6.34685 31.1863ZM10.1094 31.9068L10.0866 32.4063L10.0866 32.4063L10.1094 31.9068ZM22.8906 31.9068L22.9133 32.4063L22.9134 32.4063L22.8906 31.9068ZM26.6531 31.1863L26.8342 31.6524L26.8342 31.6523L26.6531 31.1863ZM29.3984 29.3984L29.0449 29.0449L29.0449 29.0449L29.3984 29.3984ZM31.1862 26.6531L30.7202 26.472L30.7202 26.472L31.1862 26.6531ZM31.9067 22.8906L31.4072 22.8678V22.8678L31.9067 22.8906ZM31.9067 10.1094L31.4072 10.1322V10.1322L31.9067 10.1094ZM31.1862 6.34685L31.6523 6.16573L31.6523 6.16572L31.1862 6.34685ZM26.6531 1.81376L26.472 2.2798L26.472 2.27981L26.6531 1.81376ZM22.8906 1.09328L22.8678 1.59276L22.8678 1.59276L22.8906 1.09328ZM22.7633 3.88311L22.7861 3.38363L22.7861 3.38363L22.7633 3.88311ZM25.6414 4.41686L25.4603 4.8829L25.4603 4.8829L25.6414 4.41686ZM27.4237 5.57628L27.7772 5.22275L27.7772 5.22273L27.4237 5.57628ZM28.5831 7.35854L29.0492 7.17746L29.0492 7.17739L28.5831 7.35854ZM29.1168 10.2367L29.6163 10.2139V10.2139L29.1168 10.2367ZM29.1168 22.7633L29.6163 22.7861V22.786L29.1168 22.7633ZM28.5831 25.6415L29.0492 25.8226L29.0492 25.8225L28.5831 25.6415ZM27.4237 27.4237L27.0701 27.0701L27.0701 27.0701L27.4237 27.4237ZM25.6414 28.5831L25.8225 29.0492L25.8225 29.0492L25.6414 28.5831ZM22.7633 29.1168L22.7405 28.6173L22.7405 28.6173L22.7633 29.1168ZM10.2367 29.1168L10.2595 28.6173L10.2594 28.6173L10.2367 29.1168ZM7.35848 28.5831L7.17735 29.0492L7.1774 29.0492L7.35848 28.5831ZM5.57628 27.4237L5.92985 27.0701L5.92983 27.0701L5.57628 27.4237ZM4.4168 25.6415L3.95074 25.8225L3.95076 25.8226L4.4168 25.6415ZM3.88311 22.7633L3.38363 22.7861L3.38363 22.7861L3.88311 22.7633ZM3.88311 10.2367L3.38363 10.2139L3.38363 10.2139L3.88311 10.2367ZM4.4168 7.35854L3.95076 7.17742L3.95074 7.17746L4.4168 7.35854ZM5.57628 5.57634L5.92983 5.9299L5.92985 5.92988L5.57628 5.57634ZM7.35848 4.41686L7.17736 3.95082L7.17735 3.95082L7.35848 4.41686ZM10.2366 3.88311L10.2138 3.38363L10.2138 3.38363L10.2366 3.88311ZM16.5 0.5C12.288 0.5 11.7512 0.517842 10.0866 0.593795L10.1322 1.59276C11.7739 1.51784 12.2929 1.5 16.5 1.5V0.5ZM10.0866 0.593795C8.38931 0.671206 7.20831 0.942527 6.16573 1.34772L6.52797 2.2798C7.45734 1.91861 8.52972 1.66584 10.1322 1.59276L10.0866 0.593795ZM6.16575 1.34771C5.08656 1.76707 4.16212 2.33377 3.24795 3.24795L3.95505 3.95505C4.76426 3.14585 5.56874 2.65255 6.52795 2.27981L6.16575 1.34771ZM3.24795 3.24795C2.33371 4.16218 1.76708 5.08655 1.34766 6.16572L2.27974 6.52798C2.65254 5.56875 3.14579 4.76432 3.95505 3.95505L3.24795 3.24795ZM1.34766 6.16573C0.942461 7.20832 0.671207 8.38931 0.593734 10.0866L1.59269 10.1322C1.66584 8.52971 1.91855 7.45733 2.27974 6.52797L1.34766 6.16573ZM0.593734 10.0866C0.51778 11.7512 0.5 12.288 0.5 16.5H1.5C1.5 12.2928 1.51778 11.774 1.59269 10.1322L0.593734 10.0866ZM0.5 16.5C0.5 20.712 0.51778 21.2488 0.593734 22.9134L1.59269 22.8678C1.51778 21.226 1.5 20.7071 1.5 16.5H0.5ZM0.593734 22.9134C0.671207 24.6106 0.94246 25.7917 1.34766 26.8342L2.27974 26.472C1.91855 25.5427 1.66584 24.4702 1.59269 22.8678L0.593734 22.9134ZM1.34766 26.8342C1.76708 27.9134 2.3337 28.8378 3.24796 29.752L3.95504 29.0449C3.14579 28.2357 2.65255 27.4312 2.27974 26.472L1.34766 26.8342ZM3.24793 29.752C4.16212 30.6662 5.08656 31.2329 6.1657 31.6523L6.528 30.7203C5.56874 30.3474 4.76426 29.8541 3.95507 29.0449L3.24793 29.752ZM6.16575 31.6524C7.20832 32.0575 8.3893 32.3288 10.0866 32.4063L10.1322 31.4073C8.52973 31.3342 7.45733 31.0814 6.52795 30.7203L6.16575 31.6524ZM10.0866 32.4063C11.7512 32.4822 12.288 32.5 16.5 32.5V31.5C12.2929 31.5 11.7739 31.4822 10.1321 31.4073L10.0866 32.4063ZM16.5 32.5C20.712 32.5 21.2487 32.4822 22.9133 32.4063L22.8678 31.4073C21.226 31.4822 20.7071 31.5 16.5 31.5V32.5ZM22.9134 32.4063C24.6106 32.3288 25.7916 32.0575 26.8342 31.6524L26.472 30.7203C25.5426 31.0814 24.4702 31.3342 22.8678 31.4073L22.9134 32.4063ZM26.8342 31.6523C27.9134 31.2329 28.8378 30.6662 29.752 29.752L29.0449 29.0449C28.2357 29.8542 27.4313 30.3474 26.4719 30.7203L26.8342 31.6523ZM29.752 29.752C30.6662 28.8378 31.2329 27.9134 31.6523 26.8342L30.7202 26.472C30.3474 27.4313 29.8542 28.2357 29.0449 29.0449L29.752 29.752ZM31.6523 26.8342C32.0575 25.7917 32.3288 24.6106 32.4062 22.9134L31.4072 22.8678C31.3342 24.4702 31.0814 25.5427 30.7202 26.472L31.6523 26.8342ZM32.4062 22.9134C32.4822 21.2488 32.5 20.712 32.5 16.5H31.5C31.5 20.7071 31.4822 21.226 31.4072 22.8678L32.4062 22.9134ZM32.5 16.5C32.5 12.288 32.4822 11.7512 32.4062 10.0866L31.4072 10.1322C31.4822 11.774 31.5 12.2929 31.5 16.5H32.5ZM32.4062 10.0866C32.3288 8.38931 32.0575 7.20831 31.6523 6.16573L30.7202 6.52797C31.0814 7.45734 31.3342 8.52972 31.4072 10.1322L32.4062 10.0866ZM31.6523 6.16572C31.2329 5.08655 30.6662 4.16218 29.752 3.24795L29.0449 3.95505C29.8542 4.76432 30.3474 5.56875 30.7202 6.52798L31.6523 6.16572ZM29.752 3.24795C28.8378 2.33378 27.9134 1.76708 26.8342 1.34771L26.472 2.27981C27.4313 2.65255 28.2357 3.14584 29.0449 3.95505L29.752 3.24795ZM26.8342 1.34772C25.7916 0.942527 24.6106 0.671206 22.9133 0.593795L22.8678 1.59276C24.4702 1.66584 25.5426 1.91861 26.472 2.2798L26.8342 1.34772ZM22.9134 0.593795C21.2487 0.517842 20.712 0.5 16.5 0.5V1.5C20.7071 1.5 21.226 1.51784 22.8678 1.59276L22.9134 0.593795ZM16.5 4.29279C20.6365 4.29279 21.1176 4.30855 22.7405 4.38259L22.7861 3.38363C21.1401 3.30853 20.6408 3.29279 16.5 3.29279V4.29279ZM22.7405 4.38259C24.1966 4.44905 24.9639 4.68998 25.4603 4.8829L25.8225 3.95082C25.2266 3.7192 24.3524 3.45512 22.7861 3.38363L22.7405 4.38259ZM25.4603 4.8829C26.1199 5.13928 26.5774 5.43715 27.0701 5.92983L27.7772 5.22273C27.1852 4.63069 26.6098 4.2568 25.8225 3.95082L25.4603 4.8829ZM27.0701 5.92981C27.5628 6.42259 27.8607 6.88002 28.1171 7.5397L29.0492 7.17739C28.7431 6.39007 28.3692 5.81483 27.7772 5.22275L27.0701 5.92981ZM28.1171 7.53962C28.31 8.03605 28.5509 8.80336 28.6173 10.2595L29.6163 10.2139C29.5448 8.64751 29.2807 7.77339 29.0492 7.17746L28.1171 7.53962ZM28.6173 10.2594C28.6913 11.8823 28.7072 12.3635 28.7072 16.5H29.7072C29.7072 12.3592 29.6913 11.8599 29.6163 10.2139L28.6173 10.2594ZM28.7072 16.5C28.7072 20.6365 28.6913 21.1177 28.6173 22.7405L29.6163 22.786C29.6913 21.1401 29.7072 20.6408 29.7072 16.5H28.7072ZM28.6173 22.7405C28.5509 24.1966 28.31 24.9639 28.1171 25.4604L29.0492 25.8225C29.2807 25.2266 29.5448 24.3525 29.6163 22.7861L28.6173 22.7405ZM28.1171 25.4603C27.8607 26.1199 27.5628 26.5774 27.0701 27.0701L27.7772 27.7772C28.3692 27.1852 28.7431 26.6099 29.0492 25.8226L28.1171 25.4603ZM27.0701 27.0701C26.5774 27.5629 26.1199 27.8607 25.4603 28.1171L25.8225 29.0492C26.6098 28.7432 27.1852 28.3693 27.7772 27.7772L27.0701 27.0701ZM25.4603 28.1171C24.9639 28.31 24.1966 28.551 22.7405 28.6173L22.786 29.6163C24.3524 29.5449 25.2266 29.2807 25.8225 29.0492L25.4603 28.1171ZM22.7405 28.6173C21.1179 28.6914 20.6368 28.7072 16.5 28.7072V29.7072C20.6411 29.7072 21.1403 29.6914 22.7861 29.6163L22.7405 28.6173ZM16.5 28.7072C12.3631 28.7072 11.8821 28.6914 10.2595 28.6173L10.2139 29.6163C11.8596 29.6914 12.3588 29.7072 16.5 29.7072V28.7072ZM10.2594 28.6173C8.80336 28.551 8.036 28.31 7.53956 28.1171L7.1774 29.0492C7.77332 29.2807 8.64751 29.5449 10.2139 29.6163L10.2594 28.6173ZM7.53962 28.1171C6.88 27.8607 6.42253 27.5629 5.92985 27.0701L5.22271 27.7772C5.81475 28.3693 6.39008 28.7432 7.17735 29.0492L7.53962 28.1171ZM5.92983 27.0701C5.43713 26.5774 5.1392 26.1199 4.88283 25.4603L3.95076 25.8226C4.25676 26.6099 4.63071 27.1852 5.22273 27.7772L5.92983 27.0701ZM4.88286 25.4604C4.68998 24.9639 4.44905 24.1966 4.38259 22.7405L3.38363 22.7861C3.45512 24.3525 3.7192 25.2266 3.95074 25.8225L4.88286 25.4604ZM4.38259 22.7405C4.30855 21.1177 4.29279 20.6365 4.29279 16.5H3.29279C3.29279 20.6408 3.30853 21.1401 3.38363 22.7861L4.38259 22.7405ZM4.29279 16.5C4.29279 12.3635 4.30855 11.8823 4.38259 10.2595L3.38363 10.2139C3.30853 11.8599 3.29279 12.3592 3.29279 16.5H4.29279ZM4.38259 10.2595C4.44905 8.80336 4.68998 8.03605 4.88286 7.53962L3.95074 7.17746C3.7192 7.77339 3.45512 8.64751 3.38363 10.2139L4.38259 10.2595ZM4.88284 7.53967C5.1392 6.88003 5.43712 6.42261 5.92983 5.9299L5.22273 5.22279C4.63072 5.8148 4.25676 6.39005 3.95076 7.17742L4.88284 7.53967ZM5.92985 5.92988C6.42253 5.43714 6.88 5.13927 7.53962 4.8829L7.17735 3.95082C6.39008 4.25681 5.81475 4.63069 5.22271 5.22281L5.92985 5.92988ZM7.53961 4.8829C8.036 4.68998 8.80335 4.44905 10.2594 4.38259L10.2138 3.38363C8.64752 3.45512 7.77332 3.7192 7.17736 3.95082L7.53961 4.8829ZM10.2594 4.38259C11.8823 4.30855 12.3634 4.29279 16.5 4.29279V3.29279C12.3591 3.29279 11.8599 3.30853 10.2138 3.38363L10.2594 4.38259Z" fill="white"/>
<path fill-rule="evenodd" clip-rule="evenodd" d="M16.8975 22.0571C14.0479 22.0571 11.7378 19.747 11.7378 16.8974C11.7378 14.0478 14.0479 11.7378 16.8975 11.7378C19.7471 11.7378 22.0572 14.0478 22.0572 16.8974C22.0572 19.747 19.7471 22.0571 16.8975 22.0571ZM16.8975 8.94873C12.5075 8.94873 8.94873 12.5075 8.94873 16.8974C8.94873 21.2874 12.5075 24.8462 16.8975 24.8462C21.2874 24.8462 24.8462 21.2874 24.8462 16.8974C24.8462 12.5075 21.2874 8.94873 16.8975 8.94873Z" fill="white"/>
<path d="M16.8975 21.5571C14.324 21.5571 12.2378 19.4709 12.2378 16.8974H11.2378C11.2378 20.0232 13.7717 22.5571 16.8975 22.5571V21.5571ZM12.2378 16.8974C12.2378 14.324 14.324 12.2378 16.8975 12.2378V11.2378C13.7717 11.2378 11.2378 13.7717 11.2378 16.8974H12.2378ZM16.8975 12.2378C19.471 12.2378 21.5572 14.324 21.5572 16.8974H22.5572C22.5572 13.7717 20.0232 11.2378 16.8975 11.2378V12.2378ZM21.5572 16.8974C21.5572 19.4709 19.4709 21.5571 16.8975 21.5571V22.5571C20.0232 22.5571 22.5572 20.0232 22.5572 16.8974H21.5572ZM16.8975 8.44873C12.2314 8.44873 8.44873 12.2313 8.44873 16.8974H9.44873C9.44873 12.7836 12.7837 9.44873 16.8975 9.44873V8.44873ZM8.44873 16.8974C8.44873 21.5636 12.2314 25.3462 16.8975 25.3462V24.3462C12.7837 24.3462 9.44873 21.0113 9.44873 16.8974H8.44873ZM16.8975 25.3462C21.5636 25.3462 25.3462 21.5636 25.3462 16.8974H24.3462C24.3462 21.0113 21.0113 24.3462 16.8975 24.3462V25.3462ZM25.3462 16.8974C25.3462 12.2313 21.5636 8.44873 16.8975 8.44873V9.44873C21.0113 9.44873 24.3462 12.7836 24.3462 16.8974H25.3462Z" fill="white"/>
<path fill-rule="evenodd" clip-rule="evenodd" d="M26.436 8.15395C26.436 9.03197 25.7242 9.7437 24.8462 9.7437C23.9682 9.7437 23.2565 9.03197 23.2565 8.15395C23.2565 7.27594 23.9682 6.56421 24.8462 6.56421C25.7242 6.56421 26.436 7.27594 26.436 8.15395Z" fill="white"/>
</svg>
