<svg width="21" height="23" viewBox="0 0 21 23" fill="none" xmlns="http://www.w3.org/2000/svg">
<path fill-rule="evenodd" clip-rule="evenodd" d="M16.4127 5.82245C16.4127 9.4967 13.8771 12.65 10.5006 12.65C7.12143 12.65 4.58839 9.4967 4.58839 5.8213C4.58839 2.1482 6.76932 0 10.5006 0C14.2318 0 16.4127 2.14705 16.4127 5.82245ZM0.124032 20.8633C0.629852 21.39 2.80816 23 10.5006 23C18.193 23 20.37 21.39 20.8771 20.8644C20.9241 20.8139 20.9589 20.7555 20.9792 20.6929C20.9996 20.6302 21.005 20.5645 20.9953 20.4999C20.8797 19.4856 19.8366 14.95 10.5006 14.95C1.16458 14.95 0.121404 19.4856 0.00447418 20.4999C-0.00504059 20.5646 0.000656724 20.6303 0.0212168 20.693C0.0417768 20.7557 0.0767654 20.8129 0.124032 20.8633Z" fill="#44241E"/>
</svg>
