<svg width="25" height="23" viewBox="0 0 25 23" fill="none" xmlns="http://www.w3.org/2000/svg">
<path d="M23.7271 10.3939L20.0697 6.65051V2.32627C20.0697 1.54439 19.4507 0.910737 18.6857 0.910737C17.9224 0.910737 17.3034 1.54439 17.3034 2.32627V3.81909L14.5802 1.03174C13.2338 -0.345551 10.8929 -0.343107 9.54961 1.03424L0.404875 10.3939C-0.134958 10.9475 -0.134958 11.8433 0.404875 12.3961C0.944953 12.9496 1.82188 12.9496 2.36176 12.3961L11.5056 3.03621C11.8035 2.73292 12.3285 2.73292 12.6248 3.03531L21.7703 12.3961C22.0414 12.6729 22.395 12.8105 22.7485 12.8105C23.1026 12.8105 23.4568 12.6727 23.7271 12.3961C24.2672 11.8434 24.2672 10.9476 23.7271 10.3939Z" fill="#43241D"/>
<path d="M12.5465 5.72337C12.2808 5.45159 11.8506 5.45159 11.5857 5.72337L3.54201 13.9539C3.41501 14.0838 3.34302 14.2612 3.34302 14.4463V20.4494C3.34302 21.858 4.45893 23.0001 5.83516 23.0001H9.81761V16.6875H14.3137V23.0001H18.2963C19.6724 23.0001 20.7883 21.858 20.7883 20.4494V14.4463C20.7883 14.2612 20.717 14.0838 20.5894 13.9539L12.5465 5.72337Z" fill="#43241D"/>
</svg>
