<svg width="31" height="29" viewBox="0 0 31 29" fill="none" xmlns="http://www.w3.org/2000/svg">
<path d="M18.9609 7.58887L19.0938 7.60254C19.3924 7.66391 19.6172 7.92829 19.6172 8.24512C19.6171 8.60729 19.3232 8.90137 18.9609 8.90137C18.6083 8.90127 18.2931 8.61664 18.293 8.24512C18.293 7.89296 18.5646 7.58908 18.9365 7.58887H18.9609Z" fill="#44241D" stroke="#4C2922" stroke-width="0.5"/>
<path d="M22.2559 7.58887C22.6182 7.58887 22.9121 7.88288 22.9121 8.24512C22.912 8.60731 22.6181 8.90137 22.2559 8.90137C21.9027 8.90119 21.589 8.61598 21.5889 8.24512C21.5889 7.89222 21.8621 7.58899 22.2334 7.58887H22.2559Z" fill="#44241D" stroke="#4C2922" stroke-width="0.5"/>
<path d="M25.5532 7.58887L25.686 7.60254C25.9848 7.6639 26.2095 7.9283 26.2095 8.24512C26.2094 8.60729 25.9155 8.90137 25.5532 8.90137C25.2006 8.90127 24.8854 8.61664 24.8853 8.24512C24.8853 7.89296 25.1569 7.58908 25.5288 7.58887H25.5532Z" fill="#44241D" stroke="#4C2922" stroke-width="0.5"/>
<path d="M4.18555 6.94458C4.59332 6.80236 5.15154 6.67462 5.65527 6.82251H5.65625L5.8877 6.90552C6.41214 7.12995 6.83987 7.55638 7.19434 8.01978C7.60205 8.5528 7.9614 9.20103 8.28809 9.8186L8.48438 10.175C8.9259 10.9938 9.23641 11.7269 9.29004 12.429C9.35518 13.2832 9.03912 14.0189 8.35352 14.7561L8.34766 14.762C8.36293 14.746 8.32446 14.7753 8.32031 14.9309C8.3164 15.0794 8.3464 15.2927 8.43359 15.5647C8.60721 16.1062 8.98263 16.809 9.59766 17.5637V17.5647L9.80078 17.8069C10.0088 18.0492 10.2337 18.2915 10.4717 18.5305H10.4707C10.7883 18.8465 11.1135 19.1402 11.4355 19.4026L11.7422 19.6467C12.4334 20.1838 12.9577 20.4947 13.3721 20.634C13.8102 20.7813 14.0965 20.73 14.3584 20.5559L14.373 20.5452L14.3887 20.5364C15.186 20.0856 15.8468 19.7694 16.6123 19.7825C17.363 19.7954 18.1355 20.1237 19.1787 20.7112H19.1797C19.796 21.0369 20.4465 21.3974 20.9814 21.8069C21.5095 22.2111 21.9909 22.7119 22.1768 23.343H22.1758C22.325 23.8484 22.1983 24.4073 22.0557 24.8157C21.9441 25.135 21.8005 25.424 21.6836 25.6272L21.5771 25.8C20.9915 26.6802 19.9797 27.4907 18.9277 27.9436H18.9268C17.9852 28.348 16.9647 28.5002 16.0039 28.5002C15.1002 28.5002 14.2332 28.3654 13.5059 28.1663L13.2031 28.0774C10.7734 27.3133 8.00275 25.4946 5.7666 23.2288V23.2278C3.64548 21.1329 1.91574 18.5696 1.07715 16.2561L0.921875 15.7971C0.452379 14.3046 0.223641 12.0126 1.05664 10.0735L1.14551 9.87622C1.61037 8.89573 2.3743 7.97135 3.2002 7.42114L3.20117 7.42017L3.37402 7.3147C3.57729 7.19819 3.86653 7.05589 4.18555 6.94458ZM3.68652 9.36548C3.36528 9.68793 3.06954 10.0908 2.84863 10.5198L2.72168 10.7883C2.10322 12.2279 2.28487 14.091 2.65039 15.2532H2.64941C3.27512 17.2381 4.75347 19.5696 6.65918 21.554L7.0459 21.9456L7.05469 21.9543L7.44727 22.3411C9.43224 24.2474 11.7631 25.725 13.7471 26.3489H13.748L13.9736 26.4153C15.1405 26.7351 16.8608 26.8587 18.2109 26.2786L18.4863 26.1487C18.9291 25.9196 19.342 25.6103 19.668 25.2776L14.3408 22.4866C13.6367 22.6208 12.9437 22.4517 12.3047 22.1526C11.7815 21.9077 11.2673 21.5641 10.7754 21.1897L10.291 20.8069C9.92051 20.5051 9.55028 20.1702 9.19043 19.8118L9.18945 19.8108C8.82972 19.4496 8.49408 19.0789 8.19238 18.7083V18.7073C7.58849 17.9659 7.13267 17.2094 6.85059 16.4973C6.59914 15.8626 6.47525 15.2328 6.53418 14.6702L3.68652 9.36548ZM20.1738 23.4973C20.0366 23.3638 19.8602 23.2239 19.6572 23.0842C19.215 22.7799 18.7027 22.5084 18.3232 22.3079L18.3105 22.302C17.4152 21.797 16.9528 21.6227 16.6201 21.5989C16.5952 21.5971 16.5703 21.5961 16.5459 21.5959L20.1738 23.4973ZM7.48926 12.6174C7.48845 12.5949 7.48859 12.5715 7.48633 12.5481C7.45086 12.1819 7.23785 11.6447 6.7041 10.6985L6.69727 10.6868C6.49392 10.3022 6.22125 9.78681 5.91602 9.34302C5.76369 9.12157 5.61217 8.93124 5.46777 8.78931C5.44516 8.76708 5.42214 8.74825 5.40137 8.72974L7.48926 12.6174Z" fill="#44241D" stroke="#4C2922"/>
<path d="M19.0039 1.20898C22.7204 -0.504187 27.1832 0.982656 29.1055 4.64648L29.2812 5.00391C30.9398 8.60025 29.6002 12.8954 26.1914 14.9111L25.8438 15.1045C24.7103 15.6991 23.4769 15.9971 22.2441 15.9971C20.9979 15.9971 19.7548 15.6923 18.6172 15.0889L15.6191 15.3545H15.6162C15.2836 15.382 14.9582 15.2249 14.7754 14.9365L14.7744 14.9375C14.5924 14.6513 14.5862 14.2875 14.7568 13.9951L15.6982 12.3799C15.671 12.3368 15.6415 12.2953 15.6152 12.252L15.3848 11.8438C13.4014 8.06105 14.8647 3.36959 18.6465 1.38477L19.0039 1.20898ZM27.5 5.48828C26.0273 2.68228 22.608 1.54155 19.7617 2.85449L19.4883 2.98926C16.682 4.46229 15.5427 7.88226 16.8555 10.7285L16.9902 11.002L17.1016 11.2051C17.2186 11.4079 17.3509 11.6086 17.4961 11.8037L17.5674 11.917C17.6935 12.1524 17.7091 12.4319 17.6104 12.6797L17.5518 12.8008L17.2051 13.3936L18.7324 13.2598H18.7354L18.8125 13.2559L18.9307 13.2637C19.0481 13.2792 19.1621 13.318 19.2656 13.3779H19.2666C21.0442 14.4072 23.1861 14.4527 25.002 13.5L25.2686 13.3516C27.8791 11.8074 28.9052 8.51621 27.6348 5.76172L27.5 5.48828Z" fill="#44241D" stroke="#4C2922"/>
</svg>
