<svg width="31" height="23" viewBox="0 0 31 23" fill="none" xmlns="http://www.w3.org/2000/svg">
<path d="M12.4595 3.10606C12.4595 3.96135 12.7569 4.68722 13.3518 5.28367C13.9467 5.88012 14.6628 6.17835 15.5 6.17835C16.3372 6.17835 17.0533 5.88012 17.6482 5.28367C18.2431 4.68722 18.5405 3.96135 18.5405 3.10606C18.5405 2.25076 18.2431 1.51927 17.6482 0.91156C17.0533 0.303853 16.3372 0 15.5 0C14.6628 0 13.9467 0.303853 13.3518 0.91156C12.7569 1.51927 12.4595 2.25076 12.4595 3.10606ZM0.892324 13.8084C1.33298 14.2361 1.85075 14.5118 2.44563 14.6356C3.04051 14.7594 3.62438 14.7031 4.19723 14.4668C4.77008 14.2305 5.22726 13.8535 5.56876 13.3358C5.91027 12.8181 6.08102 12.2442 6.08102 11.6139C6.08102 10.9837 5.91027 10.4098 5.56876 9.89211C5.22726 9.37443 4.77559 8.9918 4.21375 8.74422C3.65192 8.49664 3.06805 8.43474 2.46215 8.55853C1.85625 8.68232 1.33298 8.9693 0.892324 9.41945C0.297441 10.0272 0 10.7587 0 11.6139C0 12.4692 0.297441 13.2007 0.892324 13.8084ZM15.5 8.03523C14.8611 8.03523 14.2552 7.91144 13.6823 7.66385C13.462 7.57382 13.2637 7.59633 13.0874 7.73138L11.6002 8.74422C11.49 8.83425 11.4074 8.94679 11.3523 9.08183C11.2973 9.21688 11.2918 9.35193 11.3358 9.48697L14.8721 22.4851C14.9382 22.7102 15.0593 22.8621 15.2356 22.9409C15.4119 23.0197 15.5936 23.0197 15.7809 22.9409C15.9682 22.8621 16.0839 22.7102 16.1279 22.4851L19.6642 9.48697C19.7082 9.35193 19.7027 9.21688 19.6477 9.08183C19.5926 8.94679 19.5099 8.83425 19.3998 8.74422L17.9126 7.73138C17.7363 7.59633 17.538 7.57382 17.3177 7.66385C16.7448 7.91144 16.1389 8.03523 15.5 8.03523ZM9.81556 12.6943L7.93177 13.0657C7.75551 13.1107 7.63433 13.212 7.56823 13.3695C7.32587 13.9998 6.97335 14.5624 6.51066 15.0576C6.04797 15.5528 5.50817 15.9242 4.89126 16.1717C4.75906 16.2393 4.67093 16.3406 4.62687 16.4756L4.26333 18.4338C4.24129 18.5463 4.25782 18.6532 4.3129 18.7545C4.36798 18.8558 4.43959 18.9289 4.52772 18.9739L12.2281 22.924C12.4264 23.0366 12.6082 23.0197 12.7735 22.8734C12.9387 22.7271 12.9883 22.5527 12.9222 22.3501L10.4104 13.0657C10.3664 12.9306 10.2893 12.8294 10.1791 12.7618C10.0689 12.6943 9.94776 12.6718 9.81556 12.6943ZM30.1077 13.8084C29.667 14.2361 29.1493 14.5118 28.5544 14.6356C27.9595 14.7594 27.3756 14.7031 26.8028 14.4668C26.2299 14.2305 25.7727 13.8535 25.4312 13.3358C25.0897 12.8181 24.919 12.2442 24.919 11.6139C24.919 10.9837 25.0897 10.4098 25.4312 9.89211C25.7727 9.37443 26.2244 8.9918 26.7862 8.74422C27.3481 8.49664 27.9319 8.43474 28.5378 8.55853C29.1437 8.68232 29.667 8.9693 30.1077 9.41945C30.7026 10.0272 31 10.7587 31 11.6139C31 12.4692 30.7026 13.2007 30.1077 13.8084ZM21.1844 12.6943L23.0682 13.0657C23.2445 13.1107 23.3657 13.212 23.4318 13.3695C23.6741 13.9998 24.0266 14.5568 24.4893 15.0407C24.952 15.5246 25.4808 15.9017 26.0757 16.1717C26.252 16.2393 26.3511 16.3631 26.3731 16.5431L26.7367 18.5013C26.7587 18.5913 26.7477 18.6757 26.7036 18.7545C26.6596 18.8333 26.6045 18.8952 26.5384 18.9402L18.7719 22.924C18.5736 23.0366 18.3918 23.0197 18.2265 22.8734C18.0613 22.7271 18.0117 22.5527 18.0778 22.3501L20.5896 13.0657C20.6336 12.9306 20.7107 12.8294 20.8209 12.7618C20.9311 12.6943 21.0522 12.6718 21.1844 12.6943Z" fill="#43241D"/>
</svg>
