<svg width="27" height="23" viewBox="0 0 27 23" fill="none" xmlns="http://www.w3.org/2000/svg">
<path d="M4.63383 0H25.6388C26.3906 0 27 0.675032 27 1.50775V17.0692C27 17.9019 26.3906 18.5769 25.6388 18.5769H4.63383C3.8821 18.5769 3.27271 17.9019 3.27271 17.0692V1.50775C3.27271 0.675032 3.8821 0 4.63383 0Z" fill="#43241D"/>
<path d="M26.7537 0.884521C26.9015 1.12311 27.0001 1.41676 27.0001 1.72875V17.0902C27.0001 17.8978 26.4088 18.5768 25.6697 18.5768H5.1227C5.05702 18.5768 4.97486 18.5768 4.90918 18.5585L26.7373 0.884521H26.7537Z" fill="#43241D"/>
<path d="M25.3637 1.76929H4.90918V15.9231H25.3637V1.76929Z" fill="#E7B260"/>
<path d="M15.1364 17.6923C15.3623 17.6923 15.5455 17.2963 15.5455 16.8077C15.5455 16.3192 15.3623 15.9231 15.1364 15.9231C14.9105 15.9231 14.7273 16.3192 14.7273 16.8077C14.7273 17.2963 14.9105 17.6923 15.1364 17.6923Z" fill="#FEFEFE"/>
<path d="M1.65396 18.2929L5.20772 21.2308C5.80289 20.315 5.99551 20.3913 6.74825 19.9717C9.02403 18.7507 11.3349 18.0449 9.53171 16.1753C9.84686 15.7937 10.0569 15.4885 9.91686 15.0497C9.77685 14.5919 9.4617 14.5537 9.16412 14.1912C10.3371 12.169 8.77897 12.3597 8.09624 12.0354C9.26917 10.2612 9.23413 10.5665 10.6171 8.88765C10.8272 8.62059 11.2998 8.08639 11.4049 7.78114C11.5974 7.30418 11.1948 6.99893 10.8272 7.09436C10.3545 7.22789 7.85118 9.87967 7.32593 10.4711C6.6432 11.2342 6.39814 11.5013 5.59279 11.9973C4.71752 12.5506 4.4549 12.5124 3.92974 13.6381C3.19448 15.2024 2.59931 16.8621 1.63647 18.2929H1.65396V18.2929Z" fill="#43241D"/>
<path d="M1.3524 16.8558L5.65655 20.9002C5.7357 20.9783 5.7515 21.1347 5.68822 21.2323L4.64386 22.9126C4.58058 23.0103 4.45395 23.0298 4.37487 22.9517L0.0707254 18.9074C-0.00842913 18.8292 -0.0242298 18.6729 0.0390489 18.5752L1.08341 16.8949C1.14669 16.7972 1.27324 16.7777 1.3524 16.8558Z" fill="#43241D"/>
<path d="M18.7332 4.36929C19.9572 4.36929 20.9252 4.67729 21.6372 5.29329C22.3492 5.90129 22.7052 6.77329 22.7052 7.90929H20.1732C20.1732 7.42929 20.0452 7.04929 19.7892 6.76929C19.5412 6.48929 19.1852 6.34929 18.7212 6.34929C18.1852 6.34929 17.7892 6.51729 17.5332 6.85329C17.2852 7.18929 17.1612 7.65729 17.1612 8.25729V9.02529C17.1612 9.61729 17.2852 10.0853 17.5332 10.4293C17.7892 10.7653 18.1772 10.9333 18.6972 10.9333C19.2092 10.9333 19.5972 10.8013 19.8612 10.5373C20.1252 10.2733 20.2572 9.90129 20.2572 9.42129H22.7052C22.7052 10.5493 22.3572 11.4133 21.6612 12.0133C20.9732 12.6133 19.9972 12.9133 18.7332 12.9133C17.3252 12.9133 16.2572 12.5533 15.5292 11.8333C14.8092 11.1133 14.4492 10.0493 14.4492 8.64129C14.4492 7.23329 14.8092 6.16929 15.5292 5.44929C16.2572 4.72929 17.3252 4.36929 18.7332 4.36929Z" fill="#43241D"/>
<path d="M12.9533 2.96899H6.31396V3.48179H12.9533V2.96899Z" fill="#43241D"/>
<path d="M12.9533 4.32422H6.31396V4.83702H12.9533V4.32422Z" fill="#43241D"/>
<path d="M11.2767 5.67896H6.31396V6.19175H11.2767V5.67896Z" fill="#43241D"/>
</svg>
