<svg width="117" height="124" viewBox="0 0 117 124" fill="none" xmlns="http://www.w3.org/2000/svg">
<path d="M58.4916 3.1438C27.886 3.1438 3.07495 29.6193 3.07495 62.2783C3.07495 94.9372 27.886 121.413 58.4916 121.413C89.0824 121.374 113.872 94.9213 113.908 62.2783C113.908 29.6193 89.0973 3.1438 58.4916 3.1438Z" stroke="#E7B260" stroke-width="5"/>
<path d="M78.854 54.7226L45.5066 33.9216C44.2355 33.1293 42.7899 32.7118 41.3179 32.711C36.7264 32.7089 33.002 36.6791 33 41.579V83.1811C33.0118 88.0767 36.725 92.0436 41.3125 92.0628C42.7879 92.0621 44.2362 91.639 45.5066 90.8385L78.854 70.0375C80.094 69.2666 81.1256 68.1657 81.8481 66.8422C84.1579 62.6132 82.8172 57.187 78.854 54.7226Z" fill="#E7B260"/>
</svg>
